<svg width="24" height="24" viewBox="0 0 24 24" fill="none" xmlns="http://www.w3.org/2000/svg">
<path d="M21 3.75C21 2.75544 20.6049 1.80161 19.9016 1.09835C19.1984 0.395088 18.2446 0 17.25 0H3.75C2.75544 0 1.80161 0.395088 1.09835 1.09835C0.395088 1.80161 0 2.75544 0 3.75V4.5H21V3.75ZM21 9.9V6H0V17.25C0 18.2446 0.395088 19.1984 1.09835 19.9016C1.80161 20.6049 2.75544 21 3.75 21H9.9C9.10675 19.4472 8.8259 17.6829 9.09777 15.9606C9.36964 14.2382 10.1803 12.6462 11.4132 11.4132C12.6462 10.1803 14.2382 9.36964 15.9606 9.09777C17.6829 8.8259 19.4472 9.10675 21 9.9ZM24 17.25C24 19.0402 23.2888 20.7571 22.023 22.023C20.7571 23.2888 19.0402 24 17.25 24C15.4598 24 13.7429 23.2888 12.477 22.023C11.2112 20.7571 10.5 19.0402 10.5 17.25C10.5 15.4598 11.2112 13.7429 12.477 12.477C13.7429 11.2112 15.4598 10.5 17.25 10.5C19.0402 10.5 20.7571 11.2112 22.023 12.477C23.2888 13.7429 24 15.4598 24 17.25ZM17.964 13.29C17.9207 13.1339 17.8274 12.9963 17.6984 12.8983C17.5695 12.8003 17.412 12.7472 17.25 12.7472C17.088 12.7472 16.9305 12.8003 16.8016 12.8983C16.6726 12.9963 16.5793 13.1339 16.536 13.29L15.8205 15.588H13.5C12.774 15.588 12.471 16.5585 13.059 17.004L14.934 18.4245L14.2185 20.7225C13.9935 21.4425 14.7855 22.0425 15.3735 21.597L17.2485 20.1765L19.1235 21.597C19.7115 22.0425 20.5035 21.4425 20.2785 20.7225L19.563 18.4245L21.438 17.004C22.026 16.5585 21.723 15.588 20.997 15.588H18.6795L17.9625 13.2915L17.964 13.29Z" fill="#FFC107"/>
</svg>
