<svg width="24" height="24" viewBox="0 0 24 24" fill="none" xmlns="http://www.w3.org/2000/svg">
<circle cx="12" cy="12" r="12" fill="#DC3545"/>
<path d="M12 4.80005C12.3183 4.80005 12.6235 4.92648 12.8486 5.15152C13.0736 5.37656 13.2 5.68179 13.2 6.00005V13.2C13.2 13.5183 13.0736 13.8235 12.8486 14.0486C12.6235 14.2736 12.3183 14.4 12 14.4C11.6818 14.4 11.3766 14.2736 11.1515 14.0486C10.9265 13.8235 10.8 13.5183 10.8 13.2V6.00005C10.8 5.68179 10.9265 5.37656 11.1515 5.15152C11.3766 4.92648 11.6818 4.80005 12 4.80005V4.80005ZM12 16.8C11.6818 16.8 11.3766 16.9265 11.1515 17.1515C10.9265 17.3766 10.8 17.6818 10.8 18C10.8 18.3183 10.9265 18.6235 11.1515 18.8486C11.3766 19.0736 11.6818 19.2 12 19.2C12.3183 19.2 12.6235 19.0736 12.8486 18.8486C13.0736 18.6235 13.2 18.3183 13.2 18C13.2 17.6818 13.0736 17.3766 12.8486 17.1515C12.6235 16.9265 12.3183 16.8 12 16.8Z" fill="#F8F9FA"/>
</svg>
