<svg width="24" height="25" viewBox="0 0 24 25" fill="none" xmlns="http://www.w3.org/2000/svg">
<path d="M24 7.92854C24 9.59561 23.3378 11.1944 22.159 12.3732C20.9802 13.552 19.3814 14.2143 17.7143 14.2143C16.0472 14.2143 14.4484 13.552 13.2696 12.3732C12.0908 11.1944 11.4286 9.59561 11.4286 7.92854C11.4286 6.26146 12.0908 4.66267 13.2696 3.48387C14.4484 2.30507 16.0472 1.64282 17.7143 1.64282C19.3814 1.64282 20.9802 2.30507 22.159 3.48387C23.3378 4.66267 24 6.26146 24 7.92854ZM17.7143 3.92854C17.5627 3.92854 17.4174 3.98874 17.3102 4.0959C17.2031 4.20307 17.1429 4.34841 17.1429 4.49996V9.07139C17.1429 9.22295 17.2031 9.36829 17.3102 9.47545C17.4174 9.58262 17.5627 9.64282 17.7143 9.64282C17.8658 9.64282 18.0112 9.58262 18.1183 9.47545C18.2255 9.36829 18.2857 9.22295 18.2857 9.07139V4.49996C18.2857 4.34841 18.2255 4.20307 18.1183 4.0959C18.0112 3.98874 17.8658 3.92854 17.7143 3.92854ZM17.7143 12.0714C17.8081 12.0714 17.901 12.0529 17.9876 12.017C18.0743 11.9811 18.153 11.9285 18.2194 11.8622C18.2857 11.7959 18.3383 11.7171 18.3742 11.6305C18.4101 11.5438 18.4286 11.4509 18.4286 11.3571C18.4286 11.2633 18.4101 11.1704 18.3742 11.0838C18.3383 10.9971 18.2857 10.9184 18.2194 10.852C18.153 10.7857 18.0743 10.7331 17.9876 10.6972C17.901 10.6613 17.8081 10.6428 17.7143 10.6428C17.5248 10.6428 17.3432 10.7181 17.2092 10.852C17.0753 10.986 17 11.1677 17 11.3571C17 11.5465 17.0753 11.7282 17.2092 11.8622C17.3432 11.9961 17.5248 12.0714 17.7143 12.0714ZM17.7143 15.3571C19.6318 15.3596 21.4754 14.618 22.8571 13.2885V19.6428C22.8572 20.5915 22.4942 21.5043 21.8427 22.1939C21.1911 22.8835 20.3004 23.2977 19.3531 23.3514L19.1429 23.3571H3.71429C2.76556 23.3572 1.85277 22.9942 1.16316 22.3426C0.473562 21.6911 0.0594271 20.8003 0.00571442 19.8531L0 19.6428V10.3377L11.0309 16.116C11.1536 16.1802 11.29 16.2138 11.4286 16.2138C11.5671 16.2138 11.7036 16.1802 11.8263 16.116L14.5886 14.6691C15.5678 15.1236 16.6347 15.3585 17.7143 15.3571ZM3.71429 5.07139H10.8549C10.4778 5.97669 10.2844 6.94786 10.2857 7.92854C10.2857 10.2063 11.3109 12.244 12.9234 13.6063L11.4286 14.3891L0.0182858 8.41196C0.107139 7.53253 0.50671 6.7136 1.1452 6.10235C1.78369 5.49109 2.61924 5.12757 3.50171 5.07711L3.71429 5.07139Z" fill="#DC3545"/>
</svg>
