<svg width="24" height="24" viewBox="0 0 24 24" fill="none" xmlns="http://www.w3.org/2000/svg">
<path d="M19.9998 24C19.632 24.0011 19.2675 23.9291 18.9277 23.7884C18.5878 23.6476 18.2792 23.4408 18.0198 23.18L14.7174 19.8776C13.7803 20.0845 12.8042 20.0279 11.8973 19.714C10.9903 19.4001 10.1881 18.8412 9.57933 18.0993C8.9706 17.3574 8.57921 16.4613 8.44854 15.5106C8.31788 14.5598 8.45304 13.5914 8.83904 12.7128L9.30944 11.6408L12.6342 14.9656C12.7865 15.111 12.9889 15.1921 13.1994 15.1921C13.41 15.1921 13.6124 15.111 13.7646 14.9656C13.839 14.8914 13.8981 14.8033 13.9384 14.7063C13.9787 14.6092 13.9995 14.5052 13.9996 14.4002C13.9997 14.2951 13.979 14.191 13.9388 14.094C13.8987 13.9969 13.8397 13.9087 13.7654 13.8344L10.4406 10.5088L11.5126 10.0384C12.3914 9.65263 13.3597 9.51768 14.3105 9.6485C15.2612 9.77931 16.1571 10.1708 16.899 10.7796C17.6409 11.3883 18.1997 12.1906 18.5136 13.0975C18.8275 14.0044 18.8842 14.9805 18.6774 15.9176L21.9798 19.22C22.3715 19.6116 22.6382 20.1105 22.7462 20.6537C22.8543 21.1968 22.7988 21.7599 22.5869 22.2715C22.3749 22.7832 22.016 23.2205 21.5555 23.5282C21.095 23.8358 20.5536 24 19.9998 24ZM15.1758 18.0728L19.1518 22.0488C19.3803 22.2669 19.684 22.3886 19.9998 22.3886C20.3157 22.3886 20.6194 22.2669 20.8478 22.0488C20.9594 21.9375 21.0479 21.8052 21.1083 21.6596C21.1687 21.5141 21.1998 21.358 21.1998 21.2004C21.1998 21.0428 21.1687 20.8867 21.1083 20.7411C21.0479 20.5955 20.9594 20.4633 20.8478 20.352L16.8726 16.376L17.023 15.9096C17.1988 15.3695 17.2441 14.7954 17.1553 14.2344C17.0665 13.6735 16.8461 13.1415 16.5121 12.682C16.1782 12.2226 15.7402 11.8488 15.234 11.5912C14.7278 11.3336 14.1678 11.1995 13.5998 11.2C13.5326 11.2 13.466 11.2019 13.3998 11.2056L14.8974 12.7032C15.3474 13.1533 15.6001 13.7636 15.6001 14.4C15.6001 15.0364 15.3474 15.6467 14.8974 16.0968C14.4402 16.5333 13.8324 16.7769 13.2002 16.7769C12.5681 16.7769 11.9602 16.5333 11.503 16.0968L10.0054 14.5992C10.0017 14.6659 9.99984 14.7328 9.99984 14.8C9.9994 15.3681 10.1335 15.9282 10.3911 16.4345C10.6488 16.9407 11.0226 17.3788 11.4821 17.7128C11.9416 18.0468 12.4737 18.2673 13.0348 18.3561C13.5959 18.445 14.17 18.3997 14.7102 18.224L15.1758 18.0728Z" fill="#6C757D"/>
<path d="M17.1999 2.4H14.7999V1.6C14.7987 1.17604 14.6297 0.769811 14.3299 0.470027C14.0301 0.170244 13.6239 0.00126618 13.1999 0H6.79994C6.37599 0.00126618 5.96976 0.170244 5.66997 0.470027C5.37019 0.769811 5.20121 1.17604 5.19995 1.6V2.4H2.79995C2.37599 2.40126 1.96976 2.57024 1.66998 2.87002C1.37019 3.16981 1.20122 3.57604 1.19995 3.99999V20.8C1.20122 21.2239 1.37019 21.6302 1.66998 21.9299C1.96976 22.2297 2.37599 22.3987 2.79995 22.4H8.39994V20.8H2.79995V3.99999H5.19995V6.39999H14.7999V3.99999H17.1999V7.99999H18.7999V3.99999C18.7987 3.57604 18.6297 3.16981 18.3299 2.87002C18.0301 2.57024 17.6239 2.40126 17.1999 2.4ZM13.1999 4.79999H6.79994V1.6H13.1999V4.79999Z" fill="#6C757D"/>
</svg>
