<svg width="24" height="24" viewBox="0 0 24 24" fill="none" xmlns="http://www.w3.org/2000/svg">
<path d="M5.78172 3.15616C5.85145 3.08644 5.90676 3.00366 5.9445 2.91255C5.98224 2.82144 6.00166 2.7238 6.00166 2.62519C6.00166 2.52657 5.98224 2.42893 5.9445 2.33782C5.90676 2.24672 5.85145 2.16394 5.78172 2.09421C5.71199 2.02448 5.62921 1.96917 5.5381 1.93143C5.447 1.89369 5.34935 1.87427 5.25074 1.87427C5.15213 1.87427 5.05448 1.89369 4.96338 1.93143C4.87227 1.96917 4.78949 2.02448 4.71976 2.09421L2.25086 4.56461L1.2819 3.59415C1.14107 3.45332 0.950074 3.37421 0.750918 3.37421C0.551762 3.37421 0.360763 3.45332 0.219939 3.59415C0.0791141 3.73497 0 3.92597 0 4.12513C0 4.22374 0.0194231 4.32138 0.0571603 4.41249C0.0948974 4.5036 0.150209 4.58638 0.219939 4.65611L1.71988 6.15605C1.78955 6.22589 1.87231 6.2813 1.96342 6.31911C2.05453 6.35692 2.15221 6.37638 2.25086 6.37638C2.34951 6.37638 2.44718 6.35692 2.5383 6.31911C2.62941 6.2813 2.71217 6.22589 2.78184 6.15605L5.78172 3.15616ZM9.75056 4.12513C9.55166 4.12513 9.3609 4.20414 9.22025 4.34479C9.07961 4.48543 9.00059 4.67619 9.00059 4.8751C9.00059 5.074 9.07961 5.26476 9.22025 5.40541C9.3609 5.54605 9.55166 5.62507 9.75056 5.62507H23.25C23.4489 5.62507 23.6397 5.54605 23.7803 5.40541C23.921 5.26476 24 5.074 24 4.8751C24 4.67619 23.921 4.48543 23.7803 4.34479C23.6397 4.20414 23.4489 4.12513 23.25 4.12513H9.75056ZM9.75056 11.6248C9.55166 11.6248 9.3609 11.7038 9.22025 11.8445C9.07961 11.9851 9.00059 12.1759 9.00059 12.3748C9.00059 12.5737 9.07961 12.7645 9.22025 12.9051C9.3609 13.0458 9.55166 13.1248 9.75056 13.1248H23.25C23.4489 13.1248 23.6397 13.0458 23.7803 12.9051C23.921 12.7645 24 12.5737 24 12.3748C24 12.1759 23.921 11.9851 23.7803 11.8445C23.6397 11.7038 23.4489 11.6248 23.25 11.6248H9.75056ZM9.00059 19.8745C9.00059 19.6756 9.07961 19.4848 9.22025 19.3442C9.3609 19.2036 9.55166 19.1245 9.75056 19.1245H23.25C23.4489 19.1245 23.6397 19.2036 23.7803 19.3442C23.921 19.4848 24 19.6756 24 19.8745C24 20.0734 23.921 20.2642 23.7803 20.4048C23.6397 20.5455 23.4489 20.6245 23.25 20.6245H9.75056C9.55166 20.6245 9.3609 20.5455 9.22025 20.4048C9.07961 20.2642 9.00059 20.0734 9.00059 19.8745ZM5.78172 11.4058C5.92254 11.265 6.00166 11.074 6.00166 10.8749C6.00166 10.6757 5.92254 10.4847 5.78172 10.3439C5.6409 10.2031 5.4499 10.1239 5.25074 10.1239C5.05158 10.1239 4.86059 10.2031 4.71976 10.3439L2.25086 12.8143L1.2819 11.8438C1.14107 11.703 0.950074 11.6239 0.750918 11.6239C0.551762 11.6239 0.360763 11.703 0.219939 11.8438C0.0791141 11.9846 4.69227e-09 12.1756 0 12.3748C-4.69227e-09 12.574 0.0791142 12.765 0.219939 12.9058L1.71988 14.4057C1.78955 14.4756 1.87231 14.531 1.96342 14.5688C2.05453 14.6066 2.15221 14.6261 2.25086 14.6261C2.34951 14.6261 2.44718 14.6066 2.5383 14.5688C2.62941 14.531 2.71217 14.4756 2.78184 14.4057L5.78172 11.4058ZM5.78172 17.8436C5.85156 17.9133 5.90697 17.996 5.94478 18.0871C5.98259 18.1782 6.00205 18.2759 6.00205 18.3746C6.00205 18.4732 5.98259 18.5709 5.94478 18.662C5.90697 18.7531 5.85156 18.8359 5.78172 18.9055L2.78184 21.9054C2.71217 21.9753 2.62941 22.0307 2.5383 22.0685C2.44718 22.1063 2.34951 22.1258 2.25086 22.1258C2.15221 22.1258 2.05453 22.1063 1.96342 22.0685C1.87231 22.0307 1.78955 21.9753 1.71988 21.9054L0.219939 20.4055C0.0791142 20.2647 -4.69227e-09 20.0737 0 19.8745C4.69227e-09 19.6754 0.0791141 19.4844 0.219939 19.3435C0.360763 19.2027 0.551762 19.1236 0.750918 19.1236C0.950074 19.1236 1.14107 19.2027 1.2819 19.3435L2.25086 20.314L4.71976 17.8436C4.78943 17.7737 4.87219 17.7183 4.9633 17.6805C5.05442 17.6427 5.15209 17.6233 5.25074 17.6233C5.34939 17.6233 5.44707 17.6427 5.53818 17.6805C5.62929 17.7183 5.71205 17.7737 5.78172 17.8436Z" fill="#0D6EFD"/>
</svg>
